<svg width="43" height="55" viewBox="0 0 43 55" fill="none" xmlns="http://www.w3.org/2000/svg">
<path id="Vector (Stroke)" fill-rule="evenodd" clip-rule="evenodd" d="M21.5 0C22.8193 0 23.8889 1.05533 23.8889 2.35714V10.2143C23.8889 11.5161 22.8193 12.5714 21.5 12.5714C20.1807 12.5714 19.1111 11.5161 19.1111 10.2143V2.35714C19.1111 1.05533 20.1807 0 21.5 0ZM21.5 17.2857C22.8193 17.2857 23.8889 18.341 23.8889 19.6429V46.9522L38.9219 32.119C39.8548 31.1984 41.3674 31.1984 42.3003 32.119C43.2332 33.0395 43.2332 34.5319 42.3003 35.4525L23.1892 54.3096C22.2563 55.2301 20.7437 55.2301 19.8108 54.3096L0.699689 35.4525C-0.23323 34.5319 -0.23323 33.0395 0.699689 32.119C1.63261 31.1984 3.14517 31.1984 4.07809 32.119L19.1111 46.9522V19.6429C19.1111 18.341 20.1807 17.2857 21.5 17.2857Z" fill="#F2C94C"/>
</svg>
