<?xml version="1.0" standalone="no"?>
<!DOCTYPE svg PUBLIC "-//W3C//DTD SVG 20010904//EN"
 "http://www.w3.org/TR/2001/REC-SVG-20010904/DTD/svg10.dtd">
<svg version="1.0" xmlns="http://www.w3.org/2000/svg"
 width="165.000000pt" height="164.000000pt" viewBox="0 0 165.000000 164.000000"
 preserveAspectRatio="xMidYMid meet">

<g transform="translate(0.000000,164.000000) scale(0.100000,-0.100000)"
fill="#0593ff" stroke="none">
<path d="M737 1630 c-334 -40 -611 -284 -698 -615 -29 -111 -29 -279 0 -390
77 -295 301 -518 596 -596 111 -29 279 -29 390 0 295 77 518 301 596 596 29
111 29 279 0 390 -104 398 -483 662 -884 615z m93 -362 c-1 -160 -106 -320
-262 -398 -44 -22 -91 -40 -104 -40 -36 0 -29 -17 10 -23 57 -9 147 -59 208
-115 60 -56 138 -190 138 -238 0 -36 17 -29 23 10 9 57 59 147 116 208 73 80
186 136 290 145 l73 6 -7 -54 c-24 -191 -141 -340 -323 -410 -82 -31 -231 -32
-322 -1 -133 46 -246 158 -301 300 -32 82 -32 242 1 327 70 185 244 314 438
324 20 1 22 -4 22 -41z m450 -21 c0 -36 -28 -133 -51 -179 -33 -65 -106 -136
-174 -168 -62 -29 -174 -54 -188 -41 -4 4 -2 34 4 67 30 163 142 286 300 328
83 22 109 21 109 -7z"/>
</g>
</svg>
