<svg width="48" height="48" viewBox="0 0 48 48" fill="none" xmlns="http://www.w3.org/2000/svg">
<g id="Telegram_logo 1" clip-path="url(#clip0_511_98)">
<path id="Vector" d="M24 48C37.2548 48 48 37.2548 48 24C48 10.7452 37.2548 0 24 0C10.7452 0 0 10.7452 0 24C0 37.2548 10.7452 48 24 48Z" fill="url(#paint0_linear_511_98)"/>
<path id="Vector_2" d="M16.2461 25.7542L19.0935 33.6354C19.0935 33.6354 19.4495 34.3728 19.8307 34.3728C20.2119 34.3728 25.8817 28.4744 25.8817 28.4744L32.1867 16.2964L16.3477 23.7198L16.2461 25.7542Z" fill="#C8DAEA"/>
<path id="Vector_3" d="M20.021 27.7754L19.4744 33.5846C19.4744 33.5846 19.2456 35.3646 21.0252 33.5846C22.8048 31.8046 24.5082 30.432 24.5082 30.432" fill="#A9C6D8"/>
<path id="Vector_4" d="M16.2964 26.0356L10.4392 24.1272C10.4392 24.1272 9.73924 23.8432 9.96464 23.1992C10.011 23.0664 10.1046 22.9534 10.3846 22.7592C11.6824 21.8546 34.4058 13.6872 34.4058 13.6872C34.4058 13.6872 35.0474 13.471 35.4258 13.6148C35.5194 13.6438 35.6037 13.6971 35.6699 13.7693C35.7362 13.8415 35.782 13.93 35.8028 14.0258C35.8437 14.1949 35.8608 14.3689 35.8536 14.5428C35.8518 14.6932 35.8336 14.8326 35.8198 15.0512C35.6814 17.2842 31.5398 33.9498 31.5398 33.9498C31.5398 33.9498 31.292 34.925 30.4042 34.9584C30.1861 34.9654 29.9687 34.9285 29.7651 34.8497C29.5615 34.771 29.3759 34.652 29.2192 34.5C27.477 33.0014 21.4554 28.9546 20.1248 28.0646C20.0948 28.0441 20.0695 28.0175 20.0507 27.9864C20.0319 27.9554 20.0199 27.9207 20.0156 27.8846C19.997 27.7908 20.099 27.6746 20.099 27.6746C20.099 27.6746 30.5842 18.3546 30.8632 17.3762C30.8848 17.3004 30.8032 17.263 30.6936 17.2962C29.9972 17.5524 17.9248 25.1762 16.5924 26.0176C16.4965 26.0466 16.3952 26.0528 16.2964 26.0356Z" fill="white"/>
</g>
<defs>
<linearGradient id="paint0_linear_511_98" x1="24" y1="48" x2="24" y2="0" gradientUnits="userSpaceOnUse">
<stop stop-color="#1D93D2"/>
<stop offset="1" stop-color="#38B0E3"/>
</linearGradient>
<clipPath id="clip0_511_98">
<rect width="48" height="48" fill="white"/>
</clipPath>
</defs>
</svg>
